<svg xmlns="http://www.w3.org/2000/svg" xmlns:xlink="http://www.w3.org/1999/xlink" width="500" zoomAndPan="magnify"
    viewBox="0 0 375 374.999991" height="500" preserveAspectRatio="xMidYMid meet" version="1.0">
    <defs>
        <g />
        <clipPath id="363a11f2d1">
            <path
                d="M 56.871094 62.703125 L 76.011719 62.703125 L 76.011719 287.921875 L 56.871094 287.921875 Z M 56.871094 62.703125 "
                clip-rule="nonzero" />
        </clipPath>
        <clipPath id="f198ad7761">
            <path
                d="M 56.871094 62.46875 L 318.753906 62.46875 L 318.753906 101.09375 L 56.871094 101.09375 Z M 56.871094 62.46875 "
                clip-rule="nonzero" />
        </clipPath>
        <clipPath id="af7537bf89">
            <path
                d="M 85.078125 72.609375 L 104.125 72.609375 L 104.125 91.652344 L 85.078125 91.652344 Z M 85.078125 72.609375 "
                clip-rule="nonzero" />
        </clipPath>
        <clipPath id="a7b1e72015">
            <path
                d="M 94.601562 72.609375 C 89.34375 72.609375 85.078125 76.875 85.078125 82.132812 C 85.078125 87.390625 89.34375 91.652344 94.601562 91.652344 C 99.859375 91.652344 104.125 87.390625 104.125 82.132812 C 104.125 76.875 99.859375 72.609375 94.601562 72.609375 Z M 94.601562 72.609375 "
                clip-rule="nonzero" />
        </clipPath>
        <clipPath id="34c7b3724f">
            <path
                d="M 109.367188 72.609375 L 128.410156 72.609375 L 128.410156 91.652344 L 109.367188 91.652344 Z M 109.367188 72.609375 "
                clip-rule="nonzero" />
        </clipPath>
        <clipPath id="282c3cb150">
            <path
                d="M 118.890625 72.609375 C 113.628906 72.609375 109.367188 76.875 109.367188 82.132812 C 109.367188 87.390625 113.628906 91.652344 118.890625 91.652344 C 124.148438 91.652344 128.410156 87.390625 128.410156 82.132812 C 128.410156 76.875 124.148438 72.609375 118.890625 72.609375 Z M 118.890625 72.609375 "
                clip-rule="nonzero" />
        </clipPath>
        <clipPath id="c788b31010">
            <path
                d="M 133.660156 72.609375 L 152.703125 72.609375 L 152.703125 91.652344 L 133.660156 91.652344 Z M 133.660156 72.609375 "
                clip-rule="nonzero" />
        </clipPath>
        <clipPath id="89af5f9473">
            <path
                d="M 143.183594 72.609375 C 137.921875 72.609375 133.660156 76.875 133.660156 82.132812 C 133.660156 87.390625 137.921875 91.652344 143.183594 91.652344 C 148.441406 91.652344 152.703125 87.390625 152.703125 82.132812 C 152.703125 76.875 148.441406 72.609375 143.183594 72.609375 Z M 143.183594 72.609375 "
                clip-rule="nonzero" />
        </clipPath>
    </defs>
    <path stroke-linecap="butt" transform="matrix(0.75, 0, 0, 0.75, 67.260653, 281.17088)" fill="none"
        stroke-linejoin="miter" d="M 0.00142116 4.501327 L 332.345193 4.501327 " stroke="#b09676" stroke-width="9"
        stroke-opacity="1" stroke-miterlimit="4" />
    <path stroke-linecap="butt" transform="matrix(0, 0.75, -0.75, 0, 318.750334, 72.61397)" fill="none"
        stroke-linejoin="miter" d="M -0.000918909 9.000446 L 81.212628 9.000446 " stroke="#b09676" stroke-width="18"
        stroke-opacity="1" stroke-miterlimit="4" />
    <g clip-path="url(#363a11f2d1)">
        <path fill="#b09676"
            d="M 56.871094 62.703125 L 76.011719 62.703125 L 76.011719 287.898438 L 56.871094 287.898438 Z M 56.871094 62.703125 "
            fill-opacity="1" fill-rule="nonzero" />
    </g>
    <g clip-path="url(#f198ad7761)">
        <path fill="#b09676"
            d="M 56.871094 101.09375 L 56.871094 62.46875 L 318.8125 62.46875 L 318.8125 101.09375 Z M 56.871094 101.09375 "
            fill-opacity="1" fill-rule="nonzero" />
    </g>
    <g fill="#b09676" fill-opacity="1">
        <g transform="translate(230.13237, 205.390835)">
            <g>
                <path
                    d="M 33.96875 0 L 24.453125 0 L 22.828125 -10.890625 L 11.234375 -10.890625 L 9.609375 0 L 0.9375 0 L 10.546875 -60.0625 L 24.359375 -60.0625 Z M 12.4375 -19.046875 L 21.53125 -19.046875 L 16.984375 -49.421875 Z M 12.4375 -19.046875 " />
            </g>
        </g>
    </g>
    <g fill="#b09676" fill-opacity="1">
        <g transform="translate(265.051148, 205.390835)">
            <g>
                <path
                    d="M 17.328125 -60.0625 C 22.078125 -60.0625 25.609375 -58.800781 27.921875 -56.28125 C 30.242188 -53.757812 31.40625 -50.070312 31.40625 -45.21875 L 31.40625 -37.40625 C 31.40625 -32.539062 30.242188 -28.847656 27.921875 -26.328125 C 25.609375 -23.816406 22.078125 -22.5625 17.328125 -22.5625 L 12.875 -22.5625 L 12.875 0 L 3.4375 0 L 3.4375 -60.0625 Z M 12.875 -51.484375 L 12.875 -31.140625 L 17.328125 -31.140625 C 18.816406 -31.140625 19.960938 -31.539062 20.765625 -32.34375 C 21.566406 -33.144531 21.96875 -34.632812 21.96875 -36.8125 L 21.96875 -45.8125 C 21.96875 -47.988281 21.566406 -49.476562 20.765625 -50.28125 C 19.960938 -51.082031 18.816406 -51.484375 17.328125 -51.484375 Z M 12.875 -51.484375 " />
            </g>
        </g>
    </g>
    <g fill="#b09676" fill-opacity="1">
        <g transform="translate(297.396043, 205.390835)">
            <g>
                <path
                    d="M 17.328125 -60.0625 C 22.078125 -60.0625 25.609375 -58.800781 27.921875 -56.28125 C 30.242188 -53.757812 31.40625 -50.070312 31.40625 -45.21875 L 31.40625 -37.40625 C 31.40625 -32.539062 30.242188 -28.847656 27.921875 -26.328125 C 25.609375 -23.816406 22.078125 -22.5625 17.328125 -22.5625 L 12.875 -22.5625 L 12.875 0 L 3.4375 0 L 3.4375 -60.0625 Z M 12.875 -51.484375 L 12.875 -31.140625 L 17.328125 -31.140625 C 18.816406 -31.140625 19.960938 -31.539062 20.765625 -32.34375 C 21.566406 -33.144531 21.96875 -34.632812 21.96875 -36.8125 L 21.96875 -45.8125 C 21.96875 -47.988281 21.566406 -49.476562 20.765625 -50.28125 C 19.960938 -51.082031 18.816406 -51.484375 17.328125 -51.484375 Z M 12.875 -51.484375 " />
            </g>
        </g>
    </g>
    <path stroke-linecap="butt" transform="matrix(0.000000001309, 0.75, -0.75, 0.000000001309, 318.75098, 219.32855)"
        fill="none" stroke-linejoin="miter" d="M -0.000567212 9.001307 L 91.457772 9.001307 " stroke="#b09676"
        stroke-width="18" stroke-opacity="1" stroke-miterlimit="4" />
    <g clip-path="url(#af7537bf89)">
        <g clip-path="url(#a7b1e72015)">
            <path
                d="M 85.078125 72.609375 L 104.125 72.609375 L 104.125 91.652344 L 85.078125 91.652344 Z M 85.078125 72.609375 "
                fill-opacity="1" fill-rule="nonzero" />
        </g>
    </g>
    <g clip-path="url(#34c7b3724f)">
        <g clip-path="url(#282c3cb150)">
            <path
                d="M 109.367188 72.609375 L 128.410156 72.609375 L 128.410156 91.652344 L 109.367188 91.652344 Z M 109.367188 72.609375 "
                fill-opacity="1" fill-rule="nonzero" />
        </g>
    </g>
    <g clip-path="url(#c788b31010)">
        <g clip-path="url(#89af5f9473)">
            <path
                d="M 133.660156 72.609375 L 152.703125 72.609375 L 152.703125 91.652344 L 133.660156 91.652344 Z M 133.660156 72.609375 "
                fill-opacity="1" fill-rule="nonzero" />
        </g>
    </g>
</svg>