<svg xmlns="http://www.w3.org/2000/svg" xmlns:xlink="http://www.w3.org/1999/xlink" width="500" zoomAndPan="magnify"
    viewBox="0 0 375 374.999991" height="500" preserveAspectRatio="xMidYMid meet" version="1.0">
    <defs>
        <g />
        <clipPath id="c7143d87d4">
            <path
                d="M 37.5 69.621094 L 56.640625 69.621094 L 56.640625 294.839844 L 37.5 294.839844 Z M 37.5 69.621094 "
                clip-rule="nonzero" />
        </clipPath>
        <clipPath id="74ee6e65e2">
            <path d="M 37.5 69.386719 L 345.375 69.386719 L 345.375 91.996094 L 37.5 91.996094 Z M 37.5 69.386719 "
                clip-rule="nonzero" />
        </clipPath>
        <clipPath id="431f64f231">
            <path
                d="M 42.375 186.703125 L 87.097656 186.703125 L 87.097656 207.164062 L 42.375 207.164062 Z M 42.375 186.703125 "
                clip-rule="nonzero" />
        </clipPath>
    </defs>
    <path stroke-linecap="butt"
        transform="matrix(0.75, -0.000000000000000093, 0.000000000000000093, 0.75, 47.887775, 287.944318)" fill="none"
        stroke-linejoin="miter" d="M -0.00140827 4.501326 L 368.529866 4.501326 " stroke="#b09676" stroke-width="9"
        stroke-opacity="1" stroke-miterlimit="4" />
    <path stroke-linecap="butt" transform="matrix(0, 0.75, -0.75, 0, 336.876369, 81.031387)" fill="none"
        stroke-linejoin="miter" d="M -0.000182239 9.001826 L 285.077961 9.001826 " stroke="#b09676" stroke-width="18"
        stroke-opacity="1" stroke-miterlimit="4" />
    <g clip-path="url(#c7143d87d4)">
        <path fill="#b09676"
            d="M 37.5 69.621094 L 56.640625 69.621094 L 56.640625 294.816406 L 37.5 294.816406 Z M 37.5 69.621094 "
            fill-opacity="1" fill-rule="nonzero" />
    </g>
    <g clip-path="url(#74ee6e65e2)">
        <path fill="#b09676"
            d="M 37.5 91.996094 L 37.5 69.386719 L 345.375 69.386719 L 345.375 91.996094 Z M 37.5 91.996094 "
            fill-opacity="1" fill-rule="nonzero" />
    </g>
    <g clip-path="url(#431f64f231)">
        <path fill="#b09676"
            d="M 42.375 207.164062 L 42.375 186.703125 L 87.136719 186.703125 L 87.136719 207.164062 Z M 42.375 207.164062 "
            fill-opacity="1" fill-rule="nonzero" />
    </g>
    <g fill="#b09676" fill-opacity="1">
        <g transform="translate(120.418983, 206.737828)">
            <g>
                <path
                    d="M 10.21875 0 L 2.71875 0 L 2.71875 -47.6875 L 10.21875 -47.6875 L 10.21875 -27.25 L 18.734375 -27.25 L 18.734375 -47.6875 L 26.359375 -47.6875 L 26.359375 0 L 18.734375 0 L 18.734375 -20.4375 L 10.21875 -20.4375 Z M 10.21875 0 " />
            </g>
        </g>
    </g>
    <g fill="#b09676" fill-opacity="1">
        <g transform="translate(149.503042, 206.737828)">
            <g>
                <path
                    d="M 9.609375 -10.96875 C 9.609375 -9.238281 9.957031 -8.019531 10.65625 -7.3125 C 11.363281 -6.613281 12.304688 -6.265625 13.484375 -6.265625 C 14.671875 -6.265625 15.613281 -6.613281 16.3125 -7.3125 C 17.019531 -8.019531 17.375 -9.238281 17.375 -10.96875 L 17.375 -36.71875 C 17.375 -38.445312 17.019531 -39.660156 16.3125 -40.359375 C 15.613281 -41.066406 14.671875 -41.421875 13.484375 -41.421875 C 12.304688 -41.421875 11.363281 -41.066406 10.65625 -40.359375 C 9.957031 -39.660156 9.609375 -38.445312 9.609375 -36.71875 Z M 2.109375 -36.25 C 2.109375 -40.101562 3.082031 -43.0625 5.03125 -45.125 C 6.988281 -47.195312 9.804688 -48.234375 13.484375 -48.234375 C 17.160156 -48.234375 19.972656 -47.195312 21.921875 -45.125 C 23.878906 -43.0625 24.859375 -40.101562 24.859375 -36.25 L 24.859375 -11.4375 C 24.859375 -7.582031 23.878906 -4.617188 21.921875 -2.546875 C 19.972656 -0.484375 17.160156 0.546875 13.484375 0.546875 C 9.804688 0.546875 6.988281 -0.484375 5.03125 -2.546875 C 3.082031 -4.617188 2.109375 -7.582031 2.109375 -11.4375 Z M 2.109375 -36.25 " />
            </g>
        </g>
    </g>
    <g fill="#b09676" fill-opacity="1">
        <g transform="translate(176.47561, 206.737828)">
            <g>
                <path
                    d="M 9.875 -47.6875 L 9.875 -10.90625 C 9.875 -9.175781 10.222656 -7.96875 10.921875 -7.28125 C 11.628906 -6.601562 12.578125 -6.265625 13.765625 -6.265625 C 14.941406 -6.265625 15.878906 -6.601562 16.578125 -7.28125 C 17.285156 -7.96875 17.640625 -9.175781 17.640625 -10.90625 L 17.640625 -47.6875 L 24.734375 -47.6875 L 24.734375 -11.375 C 24.734375 -7.519531 23.789062 -4.554688 21.90625 -2.484375 C 20.019531 -0.421875 17.238281 0.609375 13.5625 0.609375 C 9.875 0.609375 7.085938 -0.421875 5.203125 -2.484375 C 3.328125 -4.554688 2.390625 -7.519531 2.390625 -11.375 L 2.390625 -47.6875 Z M 9.875 -47.6875 " />
            </g>
        </g>
    </g>
    <g fill="#b09676" fill-opacity="1">
        <g transform="translate(203.584403, 206.737828)">
            <g>
                <path
                    d="M 1.765625 -36.25 C 1.765625 -40.101562 2.6875 -43.0625 4.53125 -45.125 C 6.375 -47.195312 9.132812 -48.234375 12.8125 -48.234375 C 16.488281 -48.234375 19.242188 -47.195312 21.078125 -45.125 C 22.921875 -43.0625 23.84375 -40.101562 23.84375 -36.25 L 23.84375 -34.75 L 16.765625 -34.75 L 16.765625 -36.71875 C 16.765625 -38.445312 16.429688 -39.660156 15.765625 -40.359375 C 15.109375 -41.066406 14.191406 -41.421875 13.015625 -41.421875 C 11.828125 -41.421875 10.90625 -41.066406 10.25 -40.359375 C 9.59375 -39.660156 9.265625 -38.445312 9.265625 -36.71875 C 9.265625 -35.082031 9.625 -33.640625 10.34375 -32.390625 C 11.070312 -31.140625 11.984375 -29.957031 13.078125 -28.84375 C 14.171875 -27.738281 15.34375 -26.628906 16.59375 -25.515625 C 17.84375 -24.398438 19.007812 -23.179688 20.09375 -21.859375 C 21.1875 -20.546875 22.09375 -19.046875 22.8125 -17.359375 C 23.539062 -15.679688 23.90625 -13.707031 23.90625 -11.4375 C 23.90625 -7.582031 22.960938 -4.617188 21.078125 -2.546875 C 19.191406 -0.484375 16.410156 0.546875 12.734375 0.546875 C 9.054688 0.546875 6.273438 -0.484375 4.390625 -2.546875 C 2.503906 -4.617188 1.5625 -7.582031 1.5625 -11.4375 L 1.5625 -14.375 L 8.65625 -14.375 L 8.65625 -10.96875 C 8.65625 -9.238281 9.003906 -8.03125 9.703125 -7.34375 C 10.410156 -6.664062 11.351562 -6.328125 12.53125 -6.328125 C 13.71875 -6.328125 14.660156 -6.664062 15.359375 -7.34375 C 16.066406 -8.03125 16.421875 -9.238281 16.421875 -10.96875 C 16.421875 -12.601562 16.054688 -14.046875 15.328125 -15.296875 C 14.597656 -16.546875 13.6875 -17.722656 12.59375 -18.828125 C 11.507812 -19.941406 10.34375 -21.054688 9.09375 -22.171875 C 7.84375 -23.285156 6.671875 -24.5 5.578125 -25.8125 C 4.492188 -27.132812 3.585938 -28.632812 2.859375 -30.3125 C 2.128906 -32 1.765625 -33.976562 1.765625 -36.25 Z M 1.765625 -36.25 " />
            </g>
        </g>
    </g>
    <g fill="#b09676" fill-opacity="1">
        <g transform="translate(229.058504, 206.737828)">
            <g>
                <path
                    d="M 10.21875 -27.59375 L 20.5 -27.59375 L 20.5 -20.78125 L 10.21875 -20.78125 L 10.21875 -6.8125 L 23.15625 -6.8125 L 23.15625 0 L 2.71875 0 L 2.71875 -47.6875 L 23.15625 -47.6875 L 23.15625 -40.875 L 10.21875 -40.875 Z M 10.21875 -27.59375 " />
            </g>
        </g>
    </g>
</svg>