<svg xmlns="http://www.w3.org/2000/svg" viewBox="0 0 148 148" height="148" width="148">
    <g fill="#000">
        <path d="M24,30.66A6.7,6.7,0,0,1,30.67,24H65.25V32.2h-33v8.26H56.81v8.25H32.22v16.5H24Z"></path>
        <polygon
            points="111.41 82.19 111.41 90.44 101.25 90.44 101.25 115.2 111.41 115.2 111.41 123.45 82.84 123.45 82.84 115.2 93 115.2 93 90.44 82.84 90.44 82.84 82.19 111.41 82.19">
        </polygon>
        <path
            d="M117.77 58.86a6.35 6.35 0 01-6.36 6.35H82.06a5.58 5.58 0 01-5.58-5.58V24h8.26V57h24.77V24h8.26zM65.24 98.21V86.79a4.6 4.6 0 00-4.61-4.59H24l0 41.27 36.24 0a5 5 0 005-5v-11a7.74 7.74 0 00-.46-2.55 4.27 4.27 0 00-1.25-2 3.94 3.94 0 001.34-2A9 9 0 0065.24 98.21zm-33-7.75H56a.88.88 0 01.69.28.91.91 0 01.28.68v6.31a1 1 0 01-.5.83 1.22 1.22 0 01-.53.15H32.21zm0 16.49H56a.94.94 0 01.82.53.88.88 0 01.15.5l0 6.2c0 .7-.33 1-1 1H32.21z">
        </path>
    </g>
</svg>