<svg xmlns="http://www.w3.org/2000/svg" xmlns:xlink="http://www.w3.org/1999/xlink" width="500" zoomAndPan="magnify"
    viewBox="0 0 375 374.999991" height="500" preserveAspectRatio="xMidYMid meet" version="1.0">
    <defs>
        <g />
        <clipPath id="2d51b3f94e">
            <path
                d="M 56.871094 62.703125 L 76.011719 62.703125 L 76.011719 287.921875 L 56.871094 287.921875 Z M 56.871094 62.703125 "
                clip-rule="nonzero" />
        </clipPath>
        <clipPath id="c753f6f83a">
            <path
                d="M 56.871094 62.464844 L 324.28125 62.464844 L 324.28125 82.101562 L 56.871094 82.101562 Z M 56.871094 62.464844 "
                clip-rule="nonzero" />
        </clipPath>
        <clipPath id="9b6a8d139f">
            <path
                d="M 61.746094 179.78125 L 106.472656 179.78125 L 106.472656 200.246094 L 61.746094 200.246094 Z M 61.746094 179.78125 "
                clip-rule="nonzero" />
        </clipPath>
    </defs>
    <path stroke-linecap="butt" transform="matrix(0.75, 0, 0, 0.75, 67.260653, 281.024514)" fill="none"
        stroke-linejoin="miter" d="M 0.00142116 4.498566 L 332.345193 4.498566 " stroke="#b09676" stroke-width="9"
        stroke-opacity="1" stroke-miterlimit="4" />
    <path stroke-linecap="butt" transform="matrix(0, 0.75, -0.75, 0, 317.646605, 74.111568)" fill="none"
        stroke-linejoin="miter" d="M 0.00228442 8.997558 L 285.080428 8.997558 " stroke="#b09676" stroke-width="18"
        stroke-opacity="1" stroke-miterlimit="4" />
    <g clip-path="url(#2d51b3f94e)">
        <path fill="#b09676"
            d="M 56.871094 62.703125 L 76.011719 62.703125 L 76.011719 287.898438 L 56.871094 287.898438 Z M 56.871094 62.703125 "
            fill-opacity="1" fill-rule="nonzero" />
    </g>
    <g clip-path="url(#c753f6f83a)">
        <path fill="#b09676"
            d="M 56.871094 82.101562 L 56.871094 62.464844 L 324.28125 62.464844 L 324.28125 82.101562 Z M 56.871094 82.101562 "
            fill-opacity="1" fill-rule="nonzero" />
    </g>
    <g clip-path="url(#9b6a8d139f)">
        <path fill="#b09676"
            d="M 61.746094 200.246094 L 61.746094 179.78125 L 106.511719 179.78125 L 106.511719 200.246094 Z M 61.746094 200.246094 "
            fill-opacity="1" fill-rule="nonzero" />
    </g>
    <g fill="#b09676" fill-opacity="1">
        <g transform="translate(146.442283, 199.887413)">
            <g>
                <path
                    d="M 13.765625 -47.6875 C 17.535156 -47.6875 20.335938 -46.6875 22.171875 -44.6875 C 24.015625 -42.6875 24.9375 -39.757812 24.9375 -35.90625 L 24.9375 -29.703125 C 24.9375 -25.835938 24.015625 -22.90625 22.171875 -20.90625 C 20.335938 -18.914062 17.535156 -17.921875 13.765625 -17.921875 L 10.21875 -17.921875 L 10.21875 0 L 2.71875 0 L 2.71875 -47.6875 Z M 10.21875 -40.875 L 10.21875 -24.734375 L 13.765625 -24.734375 C 14.941406 -24.734375 15.847656 -25.050781 16.484375 -25.6875 C 17.117188 -26.320312 17.4375 -27.5 17.4375 -29.21875 L 17.4375 -36.375 C 17.4375 -38.101562 17.117188 -39.285156 16.484375 -39.921875 C 15.847656 -40.554688 14.941406 -40.875 13.765625 -40.875 Z M 10.21875 -40.875 " />
            </g>
        </g>
    </g>
    <g fill="#b09676" fill-opacity="1">
        <g transform="translate(172.120707, 199.887413)">
            <g>
                <path
                    d="M 9.609375 -10.96875 C 9.609375 -9.238281 9.957031 -8.019531 10.65625 -7.3125 C 11.363281 -6.613281 12.304688 -6.265625 13.484375 -6.265625 C 14.671875 -6.265625 15.613281 -6.613281 16.3125 -7.3125 C 17.019531 -8.019531 17.375 -9.238281 17.375 -10.96875 L 17.375 -36.71875 C 17.375 -38.445312 17.019531 -39.660156 16.3125 -40.359375 C 15.613281 -41.066406 14.671875 -41.421875 13.484375 -41.421875 C 12.304688 -41.421875 11.363281 -41.066406 10.65625 -40.359375 C 9.957031 -39.660156 9.609375 -38.445312 9.609375 -36.71875 Z M 2.109375 -36.25 C 2.109375 -40.101562 3.082031 -43.0625 5.03125 -45.125 C 6.988281 -47.195312 9.804688 -48.234375 13.484375 -48.234375 C 17.160156 -48.234375 19.972656 -47.195312 21.921875 -45.125 C 23.878906 -43.0625 24.859375 -40.101562 24.859375 -36.25 L 24.859375 -11.4375 C 24.859375 -7.582031 23.878906 -4.617188 21.921875 -2.546875 C 19.972656 -0.484375 17.160156 0.546875 13.484375 0.546875 C 9.804688 0.546875 6.988281 -0.484375 5.03125 -2.546875 C 3.082031 -4.617188 2.109375 -7.582031 2.109375 -11.4375 Z M 2.109375 -36.25 " />
            </g>
        </g>
    </g>
    <g fill="#b09676" fill-opacity="1">
        <g transform="translate(199.093276, 199.887413)">
            <g>
                <path
                    d="M 2.71875 -47.6875 L 14.578125 -47.6875 C 18.347656 -47.6875 21.148438 -46.6875 22.984375 -44.6875 C 24.828125 -42.6875 25.75 -39.757812 25.75 -35.90625 L 25.75 -11.78125 C 25.75 -7.925781 24.828125 -5 22.984375 -3 C 21.148438 -1 18.347656 0 14.578125 0 L 2.71875 0 Z M 10.21875 -40.875 L 10.21875 -6.8125 L 14.4375 -6.8125 C 15.625 -6.8125 16.554688 -7.148438 17.234375 -7.828125 C 17.910156 -8.515625 18.25 -9.71875 18.25 -11.4375 L 18.25 -36.25 C 18.25 -37.96875 17.910156 -39.164062 17.234375 -39.84375 C 16.554688 -40.53125 15.625 -40.875 14.4375 -40.875 Z M 10.21875 -40.875 " />
            </g>
        </g>
    </g>
</svg>