<svg xmlns="http://www.w3.org/2000/svg" xmlns:xlink="http://www.w3.org/1999/xlink" width="500" zoomAndPan="magnify"
    viewBox="0 0 375 374.999991" height="500" preserveAspectRatio="xMidYMid meet" version="1.0">
    <defs>
        <clipPath id="a27a109c2a">
            <path
                d="M 56.871094 62.703125 L 76.011719 62.703125 L 76.011719 287.921875 L 56.871094 287.921875 Z M 56.871094 62.703125 "
                clip-rule="nonzero" />
        </clipPath>
        <clipPath id="3860f2ba32">
            <path
                d="M 56.871094 62.464844 L 324.28125 62.464844 L 324.28125 82.101562 L 56.871094 82.101562 Z M 56.871094 62.464844 "
                clip-rule="nonzero" />
        </clipPath>
        <clipPath id="5e52d1750b">
            <path
                d="M 61.746094 179.78125 L 106.472656 179.78125 L 106.472656 200.246094 L 61.746094 200.246094 Z M 61.746094 179.78125 "
                clip-rule="nonzero" />
        </clipPath>
        <clipPath id="35c808b2a6">
            <path
                d="M 126.664062 117.8125 L 254.164062 117.8125 L 254.164062 245.3125 L 126.664062 245.3125 Z M 126.664062 117.8125 "
                clip-rule="nonzero" />
        </clipPath>
    </defs>
    <path stroke-linecap="butt" transform="matrix(0.75, 0, 0, 0.75, 67.260653, 281.024514)" fill="none"
        stroke-linejoin="miter" d="M 0.00142116 4.498566 L 332.345193 4.498566 " stroke="#b09676" stroke-width="9"
        stroke-opacity="1" stroke-miterlimit="4" />
    <path stroke-linecap="butt" transform="matrix(0, 0.75, -0.75, 0, 317.646605, 74.111568)" fill="none"
        stroke-linejoin="miter" d="M 0.00228442 8.997558 L 285.080428 8.997558 " stroke="#b09676" stroke-width="18"
        stroke-opacity="1" stroke-miterlimit="4" />
    <g clip-path="url(#a27a109c2a)">
        <path fill="#b09676"
            d="M 56.871094 62.703125 L 76.011719 62.703125 L 76.011719 287.898438 L 56.871094 287.898438 Z M 56.871094 62.703125 "
            fill-opacity="1" fill-rule="nonzero" />
    </g>
    <g clip-path="url(#3860f2ba32)">
        <path fill="#b09676"
            d="M 56.871094 82.101562 L 56.871094 62.464844 L 324.28125 62.464844 L 324.28125 82.101562 Z M 56.871094 82.101562 "
            fill-opacity="1" fill-rule="nonzero" />
    </g>
    <g clip-path="url(#5e52d1750b)">
        <path fill="#b09676"
            d="M 61.746094 200.246094 L 61.746094 179.78125 L 106.511719 179.78125 L 106.511719 200.246094 Z M 61.746094 200.246094 "
            fill-opacity="1" fill-rule="nonzero" />
    </g>
    <path fill="#b09676"
        d="M 151.152344 188.539062 L 147.359375 191.972656 L 147.359375 196.128906 L 168.179688 196.128906 L 168.179688 190.480469 L 157.113281 190.480469 L 157.113281 190.390625 L 159.824219 188.132812 C 164.070312 184.339844 167.636719 180.410156 167.636719 175.484375 C 167.636719 170.15625 163.980469 166.273438 157.339844 166.273438 C 153.363281 166.273438 149.933594 167.628906 147.71875 169.296875 L 149.660156 174.222656 C 151.199219 173.046875 153.410156 171.78125 155.941406 171.78125 C 159.328125 171.78125 160.773438 173.679688 160.773438 176.074219 C 160.683594 179.507812 157.566406 182.804688 151.152344 188.539062 "
        fill-opacity="1" fill-rule="nonzero" />
    <path fill="#b09676"
        d="M 177.980469 183.976562 L 177.980469 183.886719 L 181.910156 177.472656 C 182.90625 175.621094 183.671875 173.90625 184.621094 172.007812 L 184.800781 172.007812 C 184.667969 173.90625 184.574219 175.710938 184.574219 177.472656 L 184.574219 183.976562 Z M 191.082031 196.128906 L 191.082031 189.125 L 194.601562 189.125 L 194.601562 183.976562 L 191.082031 183.976562 L 191.082031 166.769531 L 182.679688 166.769531 L 171.566406 184.65625 L 171.566406 189.125 L 184.574219 189.125 L 184.574219 196.128906 L 191.082031 196.128906 "
        fill-opacity="1" fill-rule="nonzero" />
    <path fill="#b09676"
        d="M 200.882812 197.933594 L 210.546875 165.1875 L 205.984375 165.1875 L 196.320312 197.933594 L 200.882812 197.933594 "
        fill-opacity="1" fill-rule="nonzero" />
    <path fill="#b09676"
        d="M 214.117188 196.128906 L 221.386719 196.128906 L 233.492188 171.105469 L 233.492188 166.769531 L 212.761719 166.769531 L 212.761719 172.414062 L 226.21875 172.414062 L 226.21875 172.503906 L 214.117188 196.128906 "
        fill-opacity="1" fill-rule="nonzero" />
    <g clip-path="url(#35c808b2a6)">
        <path fill="#b09676"
            d="M 254.121094 178.996094 L 242.847656 179.449219 C 243.433594 194.042969 237.847656 208.335938 227.523438 218.660156 C 207.066406 239.117188 173.78125 239.117188 153.328125 218.660156 C 132.871094 198.203125 132.871094 164.917969 153.328125 144.460938 C 173.78125 124.003906 207.066406 124.003906 227.523438 144.460938 L 221.523438 150.464844 L 241.503906 150.464844 L 241.503906 130.480469 L 235.503906 136.484375 C 223.460938 124.445312 207.453125 117.8125 190.425781 117.8125 C 173.398438 117.8125 157.386719 124.445312 145.347656 136.484375 C 133.308594 148.523438 126.675781 164.53125 126.675781 181.5625 C 126.675781 198.589844 133.308594 214.597656 145.347656 226.636719 C 157.386719 238.679688 173.398438 245.308594 190.425781 245.308594 C 207.453125 245.308594 223.460938 238.679688 235.503906 226.636719 C 241.90625 220.234375 246.777344 212.730469 249.984375 204.335938 C 253.078125 196.226562 254.472656 187.703125 254.121094 178.996094 "
            fill-opacity="1" fill-rule="nonzero" />
    </g>
</svg>